<svg
  width="14"
  height="20"
  viewBox="0 0 14 20"
  fill="none"
  xmlns="http://www.w3.org/2000/svg"
>
<g clip-path="url(#clip0_0_6850)">
<path
      d="M7.52196 3.01259C7.19723 3.01259 6.96045 2.70774 7.04438 2.39752L7.49151 0.745319C7.56204 0.484633 7.83291 0.329918 8.09649 0.39961C8.36008 0.469362 8.51657 0.737318 8.44604 0.997944L7.99891 2.65014C7.93981 2.86856 7.74015 3.01259 7.52196 3.01259Z"
      fill="white"
    />
<path
      d="M10.8618 3.89772C10.5361 3.89772 10.3003 3.59202 10.3843 3.28241L10.832 1.63082C10.9027 1.37013 11.1736 1.2156 11.4372 1.28542C11.7008 1.35529 11.8571 1.62325 11.7864 1.88393L11.3387 3.53552C11.2795 3.75375 11.0799 3.89772 10.8618 3.89772V3.89772Z"
      fill="white"
    />
<path
      d="M3.4321 18.116C3.10639 18.116 2.87066 17.8103 2.95459 17.5007L3.39955 15.8595C3.45229 15.6457 3.64714 15.4868 3.87954 15.4868C4.15034 15.4868 4.3736 15.703 4.3736 15.9757C4.3736 16.067 4.39441 15.9632 3.90899 17.7538C3.84983 17.9721 3.65023 18.116 3.4321 18.116Z"
      fill="white"
    />
<path
      d="M6.77194 19.0011C6.44629 19.0011 6.2105 18.6954 6.29443 18.3859L6.74217 16.7337C6.81283 16.4731 7.08364 16.3183 7.34728 16.3882C7.61086 16.4581 7.76724 16.7261 7.69658 16.9867L7.24884 18.6389C7.18974 18.8572 6.99007 19.0011 6.77194 19.0011Z"
      fill="white"
    />
<path
      d="M0.65828 15.2261C0.383958 15.1571 0.221538 14.8925 0.295004 14.635L0.687139 13.2607C0.746592 13.0523 0.946163 12.9016 1.17594 12.903C1.83263 12.907 2.43526 12.4971 2.6133 11.8738L4.35898 5.75822C4.53747 5.1259 4.22761 4.49673 3.66791 4.19526C3.46654 4.08683 3.36936 3.86387 3.42945 3.65334L3.82172 2.27864C3.89518 2.02111 4.17677 1.8682 4.45109 1.93717L10.7755 3.52801C14.1878 4.38666 14.6216 9.37869 11.2132 10.7907C14.0451 12.6727 12.5578 18.2181 6.92094 16.8019C6.91201 16.8019 0.668306 15.2286 0.65828 15.2261V15.2261ZM10.9978 7.67586C11.2606 6.75264 10.6751 5.81458 9.70272 5.56935L7.80902 5.0932C7.53469 5.02423 7.25279 5.17707 7.17932 5.43461L6.49738 7.82442C6.42391 8.08196 6.58672 8.34667 6.86104 8.41564L8.75468 8.89173C9.73165 9.13793 10.7362 8.59305 10.9978 7.67586V7.67586ZM9.69501 13.4077C9.9566 12.4899 9.37685 11.5473 8.39924 11.3012L6.13339 10.7315C5.85907 10.6625 5.57717 10.8154 5.5037 11.0728L4.68871 13.9284C7.65559 14.675 7.60193 14.6827 7.92619 14.6827C8.7354 14.6827 9.47519 14.1758 9.69501 13.4077Z"
      fill="white"
    />
</g>
<defs>
<clipPath id="clip0_0_6850">
<rect width="13.8387" height="19.1613" fill="white" />
</clipPath>
</defs>
</svg>
