<svg width="37" height="37" viewBox="0 0 37 37" fill="none" xmlns="http://www.w3.org/2000/svg">
<path fill-rule="evenodd" clip-rule="evenodd" d="M12.2626 0.535364C12.2396 0.534923 12.2167 0.534925 12.1938 0.535364H8.71818C6.48751 0.535364 4.48563 1.90478 3.67713 3.98378L0.453577 12.2729C-0.329599 14.2868 0.530854 16.4954 2.31376 17.5049V31.1853C2.31376 34.1725 4.73538 36.5941 7.72259 36.5941H29.3579C32.3451 36.5941 34.7667 34.1725 34.7667 31.1853V17.5049C36.5496 16.4954 37.4101 14.2868 36.6269 12.2729L33.4034 3.98378C32.5949 1.90478 30.593 0.535364 28.3623 0.535364H24.8867C24.8639 0.534925 24.8409 0.534923 24.8179 0.535364H12.2626ZM31.1608 18.0932C30.3521 17.9985 29.5596 17.7641 28.8198 17.3943L27.5558 16.7622L27.5539 16.7623L26.3956 17.2256C24.2464 18.0853 21.8488 18.0853 19.6996 17.2256L18.5402 16.7618L17.3809 17.2256C15.2317 18.0853 12.8341 18.0853 10.6849 17.2256L9.52658 16.7623L9.52471 16.7622L8.26065 17.3943C7.52091 17.7641 6.72833 17.9985 5.91964 18.0932V31.1853C5.91964 32.1811 6.72685 32.9883 7.72259 32.9883H11.3285V27.5795C11.3285 24.5923 13.7501 22.1707 16.7373 22.1707H20.3432C23.3304 22.1707 25.752 24.5923 25.752 27.5795V32.9883H29.3579C30.3536 32.9883 31.1608 32.1811 31.1608 31.1853V18.0932ZM29.1675 13.5366C29.1404 13.523 29.113 13.5098 29.0856 13.4969L27.0808 4.14125H28.3623C29.1059 4.14125 29.7732 4.59772 30.0427 5.29072L33.2662 13.5799C33.4057 13.9386 33.1989 14.3384 32.8254 14.4318C32.022 14.6326 31.1732 14.5395 30.4324 14.1691L29.1675 13.5366ZM25.446 13.7218L23.393 4.14125H20.3432V13.5994L21.0388 13.8776C22.3283 14.3934 23.7669 14.3934 25.0564 13.8776L25.446 13.7218ZM16.7373 4.14125H13.6875L11.6345 13.7218L12.0241 13.8776C13.3136 14.3934 14.7522 14.3934 16.0417 13.8776L16.7373 13.5994V4.14125ZM7.995 13.4969L9.99978 4.14125H8.71818C7.97462 4.14125 7.30733 4.59772 7.03783 5.29071L3.81428 13.5799C3.67476 13.9386 3.88161 14.3384 4.25504 14.4318C5.0585 14.6326 5.9073 14.5395 6.64805 14.1691L7.91294 13.5366C7.94016 13.523 7.96751 13.5098 7.995 13.4969ZM22.1461 27.5795V32.9883H14.9344V27.5795C14.9344 26.5837 15.7416 25.7765 16.7373 25.7765H20.3432C21.3389 25.7765 22.1461 26.5837 22.1461 27.5795Z" fill="#707995"/>
</svg>
