<svg width="37" height="37" viewBox="0 0 37 37" fill="none" xmlns="http://www.w3.org/2000/svg">
<path fill-rule="evenodd" clip-rule="evenodd" d="M12.2616 0.535486C12.2386 0.535045 12.2157 0.535047 12.1928 0.535486H8.7172C6.48653 0.535486 4.48465 1.9049 3.67615 3.9839L0.452601 12.273C-0.330575 14.2869 0.529877 16.4955 2.31278 17.505V31.1854C2.31278 34.1726 4.7344 36.5942 7.72161 36.5942H29.3569C32.3441 36.5942 34.7657 34.1726 34.7657 31.1854V17.505C36.5486 16.4955 37.4091 14.2869 36.6259 12.273L33.4024 3.9839C32.5939 1.9049 30.592 0.535486 28.3613 0.535486H24.8857C24.8629 0.535047 24.8399 0.535045 24.8169 0.535486H12.2616ZM31.1598 18.0933C30.3511 17.9986 29.5586 17.7642 28.8188 17.3944L27.5548 16.7623L27.5529 16.7624L26.3946 17.2257C24.2454 18.0854 21.8478 18.0854 19.6986 17.2257L18.5392 16.7619L17.3799 17.2257C15.2307 18.0854 12.8331 18.0854 10.6839 17.2257L9.5256 16.7624L9.52373 16.7623L8.25967 17.3944C7.51993 17.7642 6.72735 17.9986 5.91866 18.0933V31.1854C5.91866 32.1812 6.72587 32.9884 7.72161 32.9884H11.3275V27.5796C11.3275 24.5924 13.7491 22.1708 16.7363 22.1708H20.3422C23.3294 22.1708 25.751 24.5924 25.751 27.5796V32.9884H29.3569C30.3526 32.9884 31.1598 32.1812 31.1598 31.1854V18.0933ZM29.1665 13.5367C29.1394 13.5231 29.112 13.5099 29.0846 13.497L27.0798 4.14137H28.3613C29.1049 4.14137 29.7722 4.59784 30.0417 5.29084L33.2652 13.58C33.4047 13.9387 33.1979 14.3385 32.8244 14.4319C32.021 14.6327 31.1722 14.5396 30.4314 14.1692L29.1665 13.5367ZM25.445 13.7219L23.392 4.14137H20.3422V13.5995L21.0378 13.8777C22.3273 14.3935 23.7659 14.3935 25.0554 13.8777L25.445 13.7219ZM16.7363 4.14137H13.6865L11.6335 13.7219L12.0231 13.8777C13.3126 14.3935 14.7512 14.3935 16.0407 13.8777L16.7363 13.5995V4.14137ZM7.99402 13.497L9.9988 4.14137H8.7172C7.97364 4.14137 7.30635 4.59784 7.03685 5.29083L3.8133 13.58C3.67378 13.9387 3.88063 14.3385 4.25406 14.4319C5.05752 14.6327 5.90632 14.5396 6.64707 14.1692L7.91196 13.5367C7.93918 13.5231 7.96653 13.5099 7.99402 13.497ZM22.1451 27.5796V32.9884H14.9334V27.5796C14.9334 26.5838 15.7406 25.7766 16.7363 25.7766H20.3422C21.3379 25.7766 22.1451 26.5838 22.1451 27.5796Z" fill="#6486FF"/>
</svg>
